<svg viewBox="0 0 75 88" fill="none" xmlns="http://www.w3.org/2000/svg">
<path d="M14.6014 43V40.88H15.0814C15.5614 40.88 15.9881 40.8 16.3614 40.64C16.7347 40.48 17.0681 40.2 17.3614 39.8C17.6814 39.3733 17.9881 38.76 18.2814 37.96L26.9614 14.44H32.4414L40.8014 38C41.0681 38.7467 41.3481 39.3333 41.6414 39.76C41.9614 40.16 42.2947 40.4533 42.6414 40.64C43.0147 40.8 43.4147 40.88 43.8414 40.88H44.5614V43H31.3614V40.88H32.9214C33.3214 40.88 33.7081 40.76 34.0814 40.52C34.4547 40.28 34.6414 39.88 34.6414 39.32C34.6414 39.1067 34.6147 38.8933 34.5614 38.68C34.5347 38.4667 34.4947 38.2667 34.4414 38.08C34.3881 37.8933 34.3347 37.7333 34.2814 37.6L32.8814 33.6H23.1614L22.0014 37.04C21.9481 37.2533 21.8814 37.4933 21.8014 37.76C21.7214 38.0267 21.6547 38.3067 21.6014 38.6C21.5481 38.8667 21.5214 39.1067 21.5214 39.32C21.5214 39.8267 21.7081 40.2133 22.0814 40.48C22.4547 40.7467 22.8681 40.88 23.3214 40.88H25.0014V43H14.6014ZM24.0014 31.16H32.0814L29.9614 24.6C29.7747 23.9867 29.5747 23.3333 29.3614 22.64C29.1481 21.92 28.9481 21.2 28.7614 20.48C28.5747 19.76 28.4014 19.0933 28.2414 18.48C28.1347 18.9067 28.0014 19.3733 27.8414 19.88C27.6814 20.36 27.5214 20.8667 27.3614 21.4C27.2014 21.9067 27.0281 22.4267 26.8414 22.96C26.6814 23.4667 26.5214 23.9467 26.3614 24.4L24.0014 31.16Z" />
<path d="M51.1806 62.4C48.0873 62.4 45.514 61.7867 43.4606 60.56C41.4073 59.3333 39.874 57.6267 38.8606 55.44C37.8473 53.2267 37.3406 50.64 37.3406 47.68C37.3406 44.8 37.8606 42.2667 38.9006 40.08C39.9406 37.8667 41.4873 36.1467 43.5406 34.92C45.594 33.6667 48.1273 33.04 51.1406 33.04C53.194 33.04 54.8873 33.2533 56.2206 33.68C57.5806 34.08 58.594 34.6267 59.2606 35.32C59.9273 36.0133 60.2606 36.8 60.2606 37.68C60.2606 38.6667 59.834 39.4933 58.9806 40.16C58.1273 40.8267 56.8873 41.16 55.2606 41.16C55.2606 40.28 55.1273 39.4133 54.8606 38.56C54.594 37.7067 54.1406 37 53.5006 36.44C52.8606 35.88 51.9806 35.6 50.8606 35.6C49.1806 35.6 47.834 36.08 46.8206 37.04C45.834 37.9733 45.1273 39.3333 44.7006 41.12C44.274 42.9067 44.0606 45.0933 44.0606 47.68C44.0606 50.24 44.314 52.3733 44.8206 54.08C45.354 55.7867 46.2073 57.0667 47.3806 57.92C48.5806 58.7733 50.1673 59.2 52.1406 59.2C53.4473 59.2 54.5673 59.0133 55.5006 58.64C56.434 58.24 57.2206 57.7467 57.8606 57.16C58.5273 56.5733 59.0873 55.9867 59.5406 55.4C59.754 55.56 59.914 55.8 60.0206 56.12C60.154 56.44 60.2206 56.7733 60.2206 57.12C60.2206 57.68 60.0606 58.2667 59.7406 58.88C59.4473 59.4933 58.954 60.0667 58.2606 60.6C57.5673 61.1333 56.634 61.5733 55.4606 61.92C54.314 62.24 52.8873 62.4 51.1806 62.4Z" />
<path d="M0.09375 85V84.496H0.32175C0.48175 84.496 0.60975 84.472 0.70575 84.424C0.80175 84.376 0.88975 84.284 0.96975 84.148C1.04975 84.012 1.13775 83.816 1.23375 83.56L3.89775 76.432H4.83375L7.54575 83.86C7.60975 84.028 7.67775 84.16 7.74975 84.256C7.82175 84.344 7.90975 84.408 8.01375 84.448C8.11775 84.48 8.24575 84.496 8.39775 84.496H8.55375V85H5.25375V84.496H5.52975C5.76975 84.496 5.94975 84.452 6.06975 84.364C6.18975 84.268 6.24975 84.12 6.24975 83.92C6.24975 83.872 6.24575 83.828 6.23775 83.788C6.22975 83.74 6.21775 83.692 6.20175 83.644C6.19375 83.588 6.17775 83.532 6.15375 83.476L5.67375 82.132H2.51775L2.06175 83.392C2.03775 83.456 2.01775 83.52 2.00175 83.584C1.98575 83.648 1.97375 83.708 1.96575 83.764C1.95775 83.812 1.95375 83.86 1.95375 83.908C1.95375 84.108 2.01775 84.256 2.14575 84.352C2.28175 84.448 2.48175 84.496 2.74575 84.496H3.02175V85H0.09375ZM2.74575 81.532H5.45775L4.71375 79.432C4.63375 79.192 4.55375 78.964 4.47375 78.748C4.40175 78.532 4.33375 78.324 4.26975 78.124C4.21375 77.924 4.16175 77.728 4.11375 77.536C4.08175 77.68 4.04575 77.82 4.00575 77.956C3.97375 78.092 3.93375 78.232 3.88575 78.376C3.84575 78.512 3.79775 78.66 3.74175 78.82C3.69375 78.972 3.63375 79.14 3.56175 79.324L2.74575 81.532ZM11.4347 85.12C10.8267 85.12 10.3827 84.984 10.1027 84.712C9.83069 84.432 9.69469 83.948 9.69469 83.26V79.252H8.78269V78.772C8.92669 78.772 9.08669 78.744 9.26269 78.688C9.43869 78.624 9.59069 78.524 9.71869 78.388C9.85469 78.244 9.96669 78.068 10.0547 77.86C10.1427 77.652 10.2147 77.396 10.2707 77.092H10.8227V78.568H12.3947V79.252H10.8227V83.296C10.8227 83.704 10.9067 84.004 11.0747 84.196C11.2427 84.388 11.4627 84.484 11.7347 84.484C11.8787 84.484 12.0107 84.476 12.1307 84.46C12.2507 84.444 12.3747 84.424 12.5027 84.4V84.928C12.3987 84.976 12.2427 85.02 12.0347 85.06C11.8267 85.1 11.6267 85.12 11.4347 85.12ZM12.9894 85V84.496H13.0854C13.2694 84.496 13.4334 84.476 13.5774 84.436C13.7294 84.396 13.8494 84.316 13.9374 84.196C14.0254 84.068 14.0694 83.88 14.0694 83.632V77.2C14.0694 76.96 14.0214 76.784 13.9254 76.672C13.8374 76.552 13.7174 76.476 13.5654 76.444C13.4214 76.404 13.2614 76.384 13.0854 76.384H12.9894V75.88H15.1974V78.52C15.1974 78.664 15.1934 78.816 15.1854 78.976C15.1774 79.128 15.1694 79.26 15.1614 79.372C15.1534 79.484 15.1494 79.54 15.1494 79.54H15.2094C15.3294 79.3 15.4734 79.1 15.6414 78.94C15.8174 78.772 16.0134 78.648 16.2294 78.568C16.4534 78.488 16.7014 78.448 16.9734 78.448C17.6614 78.448 18.1854 78.636 18.5454 79.012C18.9134 79.38 19.0974 79.976 19.0974 80.8V83.632C19.0974 83.88 19.1374 84.068 19.2174 84.196C19.2974 84.316 19.4054 84.396 19.5414 84.436C19.6854 84.476 19.8454 84.496 20.0214 84.496H20.0574V85H17.9694V80.86C17.9694 80.34 17.8694 79.936 17.6694 79.648C17.4774 79.36 17.1374 79.216 16.6494 79.216C16.3214 79.216 16.0494 79.296 15.8334 79.456C15.6174 79.616 15.4574 79.844 15.3534 80.14C15.2494 80.428 15.1974 80.768 15.1974 81.16V83.692C15.1974 83.924 15.2414 84.1 15.3294 84.22C15.4254 84.332 15.5454 84.408 15.6894 84.448C15.8414 84.48 16.0054 84.496 16.1814 84.496H16.2174V85H12.9894ZM20.5466 85V84.496H20.7026C20.8866 84.496 21.0506 84.476 21.1946 84.436C21.3466 84.396 21.4666 84.316 21.5546 84.196C21.6426 84.068 21.6866 83.88 21.6866 83.632V77.2C21.6866 76.96 21.6386 76.784 21.5426 76.672C21.4546 76.552 21.3346 76.476 21.1826 76.444C21.0386 76.404 20.8786 76.384 20.7026 76.384H20.5466V75.88H22.8146V83.632C22.8146 83.88 22.8586 84.068 22.9466 84.196C23.0346 84.316 23.1546 84.396 23.3066 84.436C23.4586 84.476 23.6226 84.496 23.7986 84.496H23.9546V85H20.5466ZM27.5495 85.12C26.6775 85.12 25.9935 84.832 25.4975 84.256C25.0095 83.68 24.7655 82.872 24.7655 81.832C24.7655 80.712 24.9975 79.868 25.4615 79.3C25.9255 78.732 26.5815 78.448 27.4295 78.448C28.2055 78.448 28.8135 78.688 29.2535 79.168C29.7015 79.648 29.9255 80.364 29.9255 81.316V81.868H25.9295C25.9455 82.452 26.0215 82.928 26.1575 83.296C26.2935 83.664 26.4895 83.936 26.7455 84.112C27.0095 84.28 27.3335 84.364 27.7175 84.364C27.9975 84.364 28.2455 84.324 28.4615 84.244C28.6855 84.164 28.8775 84.06 29.0375 83.932C29.2055 83.804 29.3375 83.668 29.4335 83.524C29.4895 83.548 29.5415 83.596 29.5895 83.668C29.6375 83.74 29.6615 83.828 29.6615 83.932C29.6615 84.092 29.5855 84.264 29.4335 84.448C29.2815 84.632 29.0495 84.792 28.7375 84.928C28.4255 85.056 28.0295 85.12 27.5495 85.12ZM28.7135 81.22C28.7135 80.796 28.6695 80.424 28.5815 80.104C28.5015 79.784 28.3655 79.536 28.1735 79.36C27.9815 79.184 27.7255 79.096 27.4055 79.096C27.1095 79.096 26.8575 79.18 26.6495 79.348C26.4495 79.508 26.2895 79.744 26.1695 80.056C26.0575 80.368 25.9855 80.756 25.9535 81.22H28.7135ZM33.4073 85.12C32.7993 85.12 32.3553 84.984 32.0753 84.712C31.8033 84.432 31.6673 83.948 31.6673 83.26V79.252H30.7553V78.772C30.8993 78.772 31.0593 78.744 31.2353 78.688C31.4113 78.624 31.5633 78.524 31.6913 78.388C31.8273 78.244 31.9393 78.068 32.0273 77.86C32.1153 77.652 32.1873 77.396 32.2433 77.092H32.7953V78.568H34.3673V79.252H32.7953V83.296C32.7953 83.704 32.8793 84.004 33.0473 84.196C33.2153 84.388 33.4353 84.484 33.7073 84.484C33.8513 84.484 33.9833 84.476 34.1033 84.46C34.2233 84.444 34.3473 84.424 34.4753 84.4V84.928C34.3713 84.976 34.2153 85.02 34.0073 85.06C33.7993 85.1 33.5993 85.12 33.4073 85.12ZM38.1901 85.12C37.3181 85.12 36.6341 84.832 36.1381 84.256C35.6501 83.68 35.4061 82.872 35.4061 81.832C35.4061 80.712 35.6381 79.868 36.1021 79.3C36.5661 78.732 37.2221 78.448 38.0701 78.448C38.8461 78.448 39.4541 78.688 39.8941 79.168C40.3421 79.648 40.5661 80.364 40.5661 81.316V81.868H36.5701C36.5861 82.452 36.6621 82.928 36.7981 83.296C36.9341 83.664 37.1301 83.936 37.3861 84.112C37.6501 84.28 37.9741 84.364 38.3581 84.364C38.6381 84.364 38.8861 84.324 39.1021 84.244C39.3261 84.164 39.5181 84.06 39.6781 83.932C39.8461 83.804 39.9781 83.668 40.0741 83.524C40.1301 83.548 40.1821 83.596 40.2301 83.668C40.2781 83.74 40.3021 83.828 40.3021 83.932C40.3021 84.092 40.2261 84.264 40.0741 84.448C39.9221 84.632 39.6901 84.792 39.3781 84.928C39.0661 85.056 38.6701 85.12 38.1901 85.12ZM39.3541 81.22C39.3541 80.796 39.3101 80.424 39.2221 80.104C39.1421 79.784 39.0061 79.536 38.8141 79.36C38.6221 79.184 38.3661 79.096 38.0461 79.096C37.7501 79.096 37.4981 79.18 37.2901 79.348C37.0901 79.508 36.9301 79.744 36.8101 80.056C36.6981 80.368 36.6261 80.756 36.5941 81.22H39.3541ZM45.5 85.12C44.708 85.12 44.04 84.936 43.496 84.568C42.952 84.2 42.54 83.688 42.26 83.032C41.988 82.368 41.852 81.592 41.852 80.704C41.852 79.84 41.996 79.08 42.284 78.424C42.58 77.76 43.012 77.244 43.58 76.876C44.156 76.5 44.864 76.312 45.704 76.312C46.248 76.312 46.7 76.372 47.06 76.492C47.42 76.604 47.688 76.764 47.864 76.972C48.04 77.172 48.128 77.4 48.128 77.656C48.128 77.912 48.028 78.116 47.828 78.268C47.628 78.42 47.38 78.496 47.084 78.496C47.084 78.248 47.04 78.008 46.952 77.776C46.864 77.536 46.716 77.34 46.508 77.188C46.308 77.028 46.032 76.948 45.68 76.948C45.08 76.948 44.596 77.096 44.228 77.392C43.86 77.68 43.592 78.104 43.424 78.664C43.264 79.224 43.184 79.904 43.184 80.704C43.184 81.416 43.268 82.048 43.436 82.6C43.612 83.144 43.884 83.568 44.252 83.872C44.62 84.176 45.096 84.328 45.68 84.328C46.072 84.328 46.404 84.28 46.676 84.184C46.948 84.088 47.176 83.964 47.36 83.812C47.552 83.652 47.716 83.484 47.852 83.308C47.916 83.348 47.968 83.408 48.008 83.488C48.056 83.56 48.08 83.656 48.08 83.776C48.08 83.928 48.028 84.084 47.924 84.244C47.82 84.396 47.664 84.54 47.456 84.676C47.248 84.804 46.98 84.912 46.652 85C46.332 85.08 45.948 85.12 45.5 85.12ZM51.9831 85.12C51.1191 85.12 50.4391 84.844 49.9431 84.292C49.4471 83.74 49.1991 82.9 49.1991 81.772C49.1991 80.652 49.4351 79.82 49.9071 79.276C50.3871 78.724 51.0911 78.448 52.0191 78.448C52.8831 78.448 53.5631 78.724 54.0591 79.276C54.5551 79.82 54.8031 80.652 54.8031 81.772C54.8031 82.9 54.5631 83.74 54.0831 84.292C53.6111 84.844 52.9111 85.12 51.9831 85.12ZM52.0071 84.496C52.4071 84.496 52.7271 84.396 52.9671 84.196C53.2071 83.988 53.3791 83.68 53.4831 83.272C53.5871 82.864 53.6391 82.364 53.6391 81.772C53.6391 81.172 53.5831 80.676 53.4711 80.284C53.3671 79.884 53.1951 79.584 52.9551 79.384C52.7151 79.184 52.3951 79.084 51.9951 79.084C51.5951 79.084 51.2751 79.184 51.0351 79.384C50.7951 79.584 50.6231 79.884 50.5191 80.284C50.4151 80.676 50.3631 81.172 50.3631 81.772C50.3631 82.364 50.4151 82.864 50.5191 83.272C50.6311 83.68 50.8071 83.988 51.0471 84.196C51.2871 84.396 51.6071 84.496 52.0071 84.496ZM58.5728 85.12C58.0448 85.12 57.5968 85.004 57.2288 84.772C56.8688 84.54 56.5928 84.18 56.4008 83.692C56.2168 83.196 56.1248 82.564 56.1248 81.796C56.1248 81.02 56.2168 80.388 56.4008 79.9C56.5928 79.404 56.8688 79.04 57.2288 78.808C57.5968 78.568 58.0448 78.448 58.5728 78.448C59.0368 78.448 59.4128 78.548 59.7008 78.748C59.9968 78.94 60.2328 79.192 60.4088 79.504H60.4808C60.4648 79.368 60.4488 79.224 60.4328 79.072C60.4248 78.92 60.4168 78.768 60.4088 78.616C60.4088 78.456 60.4088 78.312 60.4088 78.184V77.2C60.4088 76.96 60.3608 76.784 60.2648 76.672C60.1768 76.552 60.0568 76.476 59.9048 76.444C59.7608 76.404 59.6008 76.384 59.4248 76.384H59.3288V75.88H61.5368V83.68C61.5368 83.912 61.5808 84.088 61.6688 84.208C61.7648 84.328 61.8848 84.408 62.0288 84.448C62.1808 84.48 62.3448 84.496 62.5208 84.496H62.6168V85H60.5888L60.4568 83.92H60.4088C60.2328 84.288 60.0008 84.58 59.7128 84.796C59.4248 85.012 59.0448 85.12 58.5728 85.12ZM58.7768 84.352C59.4008 84.352 59.8288 84.144 60.0608 83.728C60.2928 83.304 60.4088 82.66 60.4088 81.796C60.4088 81.236 60.3568 80.768 60.2528 80.392C60.1568 80.008 59.9888 79.716 59.7488 79.516C59.5168 79.316 59.1888 79.216 58.7648 79.216C58.4128 79.216 58.1288 79.316 57.9128 79.516C57.6968 79.716 57.5368 80.008 57.4328 80.392C57.3368 80.776 57.2888 81.248 57.2888 81.808C57.2888 82.376 57.3368 82.848 57.4328 83.224C57.5368 83.6 57.6968 83.884 57.9128 84.076C58.1368 84.26 58.4248 84.352 58.7768 84.352ZM66.2799 85.12C65.4079 85.12 64.7239 84.832 64.2279 84.256C63.7399 83.68 63.4959 82.872 63.4959 81.832C63.4959 80.712 63.7279 79.868 64.1919 79.3C64.6559 78.732 65.3119 78.448 66.1599 78.448C66.9359 78.448 67.5439 78.688 67.9839 79.168C68.4319 79.648 68.6559 80.364 68.6559 81.316V81.868H64.6599C64.6759 82.452 64.7519 82.928 64.8879 83.296C65.0239 83.664 65.2199 83.936 65.4759 84.112C65.7399 84.28 66.0639 84.364 66.4479 84.364C66.7279 84.364 66.9759 84.324 67.1919 84.244C67.4159 84.164 67.6079 84.06 67.7679 83.932C67.9359 83.804 68.0679 83.668 68.1639 83.524C68.2199 83.548 68.2719 83.596 68.3199 83.668C68.3679 83.74 68.3919 83.828 68.3919 83.932C68.3919 84.092 68.3159 84.264 68.1639 84.448C68.0119 84.632 67.7799 84.792 67.4679 84.928C67.1559 85.056 66.7599 85.12 66.2799 85.12ZM67.4439 81.22C67.4439 80.796 67.3999 80.424 67.3119 80.104C67.2319 79.784 67.0959 79.536 66.9039 79.36C66.7119 79.184 66.4559 79.096 66.1359 79.096C65.8399 79.096 65.5879 79.18 65.3799 79.348C65.1799 79.508 65.0199 79.744 64.8999 80.056C64.7879 80.368 64.7159 80.756 64.6839 81.22H67.4439ZM69.6538 85V84.496H69.6898C69.8738 84.496 70.0378 84.476 70.1818 84.436C70.3338 84.396 70.4538 84.316 70.5418 84.196C70.6298 84.068 70.6738 83.88 70.6738 83.632V79.888C70.6738 79.648 70.6258 79.472 70.5298 79.36C70.4418 79.24 70.3218 79.164 70.1698 79.132C70.0258 79.092 69.8658 79.072 69.6898 79.072H69.6538V78.568H71.5018L71.7298 79.756H71.7898C71.8938 79.516 72.0058 79.296 72.1258 79.096C72.2458 78.896 72.4058 78.74 72.6058 78.628C72.8058 78.508 73.0818 78.448 73.4338 78.448C73.8738 78.448 74.1978 78.524 74.4058 78.676C74.6218 78.828 74.7298 79.044 74.7298 79.324C74.7298 79.572 74.6418 79.776 74.4658 79.936C74.2978 80.096 74.0138 80.176 73.6138 80.176C73.6138 79.952 73.5938 79.772 73.5538 79.636C73.5138 79.5 73.4458 79.4 73.3498 79.336C73.2618 79.272 73.1378 79.24 72.9778 79.24C72.7538 79.24 72.5658 79.328 72.4138 79.504C72.2618 79.68 72.1418 79.904 72.0538 80.176C71.9658 80.448 71.9018 80.732 71.8618 81.028C71.8218 81.316 71.8018 81.576 71.8018 81.808V83.692C71.8018 83.924 71.8458 84.1 71.9338 84.22C72.0298 84.332 72.1498 84.408 72.2938 84.448C72.4458 84.48 72.6098 84.496 72.7858 84.496H73.1218V85H69.6538Z" />
</svg>
