<svg viewBox="0 0 1637 1199" fill="none" xmlns="http://www.w3.org/2000/svg" width='100%' height='100%' preserveAspectRatio='none'>
<ellipse cx="1635.37" cy="136.293" rx="0.7372" ry="0.7372" transform="rotate(90 1635.37 136.293)" fill="white"/>
<ellipse cx="1635.37" cy="246.873" rx="0.737202" ry="0.7372" transform="rotate(90 1635.37 246.873)" fill="white"/>
<ellipse cx="1635.37" cy="357.453" rx="0.737212" ry="0.7372" transform="rotate(90 1635.37 357.453)" fill="white"/>
<ellipse cx="1635.37" cy="468.033" rx="0.737202" ry="0.7372" transform="rotate(90 1635.37 468.033)" fill="white"/>
<ellipse cx="1635.37" cy="578.613" rx="0.737182" ry="0.7372" transform="rotate(90 1635.37 578.613)" fill="white"/>
<ellipse cx="1635.37" cy="689.193" rx="0.737182" ry="0.7372" transform="rotate(90 1635.37 689.193)" fill="white"/>
<ellipse cx="1635.37" cy="799.773" rx="0.737223" ry="0.7372" transform="rotate(90 1635.37 799.773)" fill="white"/>
<ellipse cx="1635.37" cy="910.353" rx="0.737223" ry="0.7372" transform="rotate(90 1635.37 910.353)" fill="white"/>
<ellipse cx="1635.37" cy="1020.93" rx="0.737182" ry="0.7372" transform="rotate(90 1635.37 1020.93)" fill="white"/>
<ellipse cx="1635.37" cy="1131.51" rx="0.737223" ry="0.7372" transform="rotate(90 1635.37 1131.51)" fill="white"/>
<circle cx="1561.65" cy="173.153" r="0.737202" transform="rotate(90 1561.65 173.153)" fill="white"/>
<circle cx="1561.65" cy="283.733" r="0.737202" transform="rotate(90 1561.65 283.733)" fill="white"/>
<ellipse cx="1561.65" cy="394.313" rx="0.737192" ry="0.737202" transform="rotate(90 1561.65 394.313)" fill="white"/>
<circle cx="1561.65" cy="504.893" r="0.737202" transform="rotate(90 1561.65 504.893)" fill="white"/>
<circle cx="1561.65" cy="615.472" r="0.737202" transform="rotate(90 1561.65 615.472)" fill="white"/>
<ellipse cx="1561.65" cy="726.053" rx="0.737121" ry="0.737202" transform="rotate(90 1561.65 726.053)" fill="white"/>
<ellipse cx="1561.65" cy="836.633" rx="0.737182" ry="0.737202" transform="rotate(90 1561.65 836.633)" fill="white"/>
<ellipse cx="1561.65" cy="947.212" rx="0.737223" ry="0.737202" transform="rotate(90 1561.65 947.212)" fill="white"/>
<ellipse cx="1561.65" cy="1057.79" rx="0.737223" ry="0.737202" transform="rotate(90 1561.65 1057.79)" fill="white"/>
<ellipse cx="1561.65" cy="1168.37" rx="0.737223" ry="0.737202" transform="rotate(90 1561.65 1168.37)" fill="white"/>
<ellipse cx="1487.93" cy="106.805" rx="0.7372" ry="0.737202" transform="rotate(90 1487.93 106.805)" fill="white"/>
<ellipse cx="1487.93" cy="217.384" rx="0.737182" ry="0.737202" transform="rotate(90 1487.93 217.384)" fill="white"/>
<circle cx="1487.93" cy="327.965" r="0.737202" transform="rotate(90 1487.93 327.965)" fill="white"/>
<ellipse cx="1487.93" cy="438.545" rx="0.737243" ry="0.737202" transform="rotate(90 1487.93 438.545)" fill="white"/>
<circle cx="1487.93" cy="549.124" r="0.737202" transform="rotate(90 1487.93 549.124)" fill="white"/>
<ellipse cx="1487.93" cy="659.704" rx="0.737121" ry="0.737202" transform="rotate(90 1487.93 659.704)" fill="white"/>
<ellipse cx="1487.93" cy="770.285" rx="0.737263" ry="0.737202" transform="rotate(90 1487.93 770.285)" fill="white"/>
<ellipse cx="1487.93" cy="880.864" rx="0.737223" ry="0.737202" transform="rotate(90 1487.93 880.864)" fill="white"/>
<ellipse cx="1487.93" cy="991.444" rx="0.737223" ry="0.737202" transform="rotate(90 1487.93 991.444)" fill="white"/>
<ellipse cx="1487.93" cy="1102.02" rx="0.737182" ry="0.737202" transform="rotate(90 1487.93 1102.02)" fill="white"/>
<ellipse cx="1414.21" cy="99.4328" rx="0.737201" ry="0.737202" transform="rotate(90 1414.21 99.4328)" fill="white"/>
<circle cx="1414.21" cy="210.013" r="0.737202" transform="rotate(90 1414.21 210.013)" fill="white"/>
<ellipse cx="1414.21" cy="320.592" rx="0.737192" ry="0.737202" transform="rotate(90 1414.21 320.592)" fill="white"/>
<ellipse cx="1414.21" cy="431.173" rx="0.737162" ry="0.737202" transform="rotate(90 1414.21 431.173)" fill="white"/>
<circle cx="1414.21" cy="541.753" r="0.737202" transform="rotate(90 1414.21 541.753)" fill="white"/>
<ellipse cx="1414.21" cy="652.333" rx="0.737121" ry="0.737202" transform="rotate(90 1414.21 652.333)" fill="white"/>
<ellipse cx="1414.21" cy="762.913" rx="0.737223" ry="0.737202" transform="rotate(90 1414.21 762.913)" fill="white"/>
<ellipse cx="1414.21" cy="873.493" rx="0.737182" ry="0.737202" transform="rotate(90 1414.21 873.493)" fill="white"/>
<ellipse cx="1414.21" cy="984.072" rx="0.737182" ry="0.737202" transform="rotate(90 1414.21 984.072)" fill="white"/>
<ellipse cx="1414.21" cy="1094.65" rx="0.737223" ry="0.737202" transform="rotate(90 1414.21 1094.65)" fill="white"/>
<ellipse cx="1340.49" cy="151.036" rx="0.737207" ry="0.737202" transform="rotate(90 1340.49 151.036)" fill="white"/>
<circle cx="1340.49" cy="261.617" r="0.737202" transform="rotate(90 1340.49 261.617)" fill="white"/>
<ellipse cx="1340.49" cy="372.197" rx="0.737233" ry="0.737202" transform="rotate(90 1340.49 372.197)" fill="white"/>
<circle cx="1340.49" cy="482.776" r="0.737202" transform="rotate(90 1340.49 482.776)" fill="white"/>
<ellipse cx="1340.49" cy="593.357" rx="0.737182" ry="0.737202" transform="rotate(90 1340.49 593.357)" fill="white"/>
<ellipse cx="1340.49" cy="703.937" rx="0.737263" ry="0.737202" transform="rotate(90 1340.49 703.937)" fill="white"/>
<ellipse cx="1340.49" cy="814.516" rx="0.737223" ry="0.737202" transform="rotate(90 1340.49 814.516)" fill="white"/>
<ellipse cx="1340.49" cy="925.096" rx="0.737223" ry="0.737202" transform="rotate(90 1340.49 925.096)" fill="white"/>
<ellipse cx="1340.49" cy="1035.68" rx="0.737182" ry="0.737202" transform="rotate(90 1340.49 1035.68)" fill="white"/>
<ellipse cx="1340.49" cy="1146.26" rx="0.737466" ry="0.737202" transform="rotate(90 1340.49 1146.26)" fill="white"/>
<circle cx="1266.77" cy="128.921" r="0.737202" transform="rotate(90 1266.77 128.921)" fill="white"/>
<circle cx="1266.77" cy="239.501" r="0.737202" transform="rotate(90 1266.77 239.501)" fill="white"/>
<ellipse cx="1266.77" cy="350.081" rx="0.737172" ry="0.737202" transform="rotate(90 1266.77 350.081)" fill="white"/>
<ellipse cx="1266.77" cy="460.661" rx="0.737182" ry="0.737202" transform="rotate(90 1266.77 460.661)" fill="white"/>
<circle cx="1266.77" cy="571.241" r="0.737202" transform="rotate(90 1266.77 571.241)" fill="white"/>
<circle cx="1266.77" cy="681.82" r="0.737202" transform="rotate(90 1266.77 681.82)" fill="white"/>
<ellipse cx="1266.77" cy="792.4" rx="0.737142" ry="0.737202" transform="rotate(90 1266.77 792.4)" fill="white"/>
<ellipse cx="1266.77" cy="902.981" rx="0.737182" ry="0.737202" transform="rotate(90 1266.77 902.981)" fill="white"/>
<ellipse cx="1266.77" cy="1013.56" rx="0.737223" ry="0.737202" transform="rotate(90 1266.77 1013.56)" fill="white"/>
<ellipse cx="1266.77" cy="1124.14" rx="0.737223" ry="0.737202" transform="rotate(90 1266.77 1124.14)" fill="white"/>
<ellipse cx="1193.05" cy="151.036" rx="0.737207" ry="0.737202" transform="rotate(90 1193.05 151.036)" fill="white"/>
<circle cx="1193.05" cy="261.617" r="0.737202" transform="rotate(90 1193.05 261.617)" fill="white"/>
<ellipse cx="1193.05" cy="372.197" rx="0.737233" ry="0.737202" transform="rotate(90 1193.05 372.197)" fill="white"/>
<circle cx="1193.05" cy="482.776" r="0.737202" transform="rotate(90 1193.05 482.776)" fill="white"/>
<ellipse cx="1193.05" cy="593.357" rx="0.737182" ry="0.737202" transform="rotate(90 1193.05 593.357)" fill="white"/>
<ellipse cx="1193.05" cy="703.937" rx="0.737263" ry="0.737202" transform="rotate(90 1193.05 703.937)" fill="white"/>
<ellipse cx="1193.05" cy="814.516" rx="0.737223" ry="0.737202" transform="rotate(90 1193.05 814.516)" fill="white"/>
<ellipse cx="1193.05" cy="925.096" rx="0.737223" ry="0.737202" transform="rotate(90 1193.05 925.096)" fill="white"/>
<ellipse cx="1193.05" cy="1035.68" rx="0.737182" ry="0.737202" transform="rotate(90 1193.05 1035.68)" fill="white"/>
<ellipse cx="1193.05" cy="1146.26" rx="0.737466" ry="0.737202" transform="rotate(90 1193.05 1146.26)" fill="white"/>
<circle cx="1117.85" cy="114.177" r="0.737202" transform="rotate(90 1117.85 114.177)" fill="white"/>
<ellipse cx="1117.85" cy="224.757" rx="0.737218" ry="0.737202" transform="rotate(90 1117.85 224.757)" fill="white"/>
<circle cx="1117.85" cy="335.337" r="0.737202" transform="rotate(90 1117.85 335.337)" fill="white"/>
<ellipse cx="1117.85" cy="445.917" rx="0.737182" ry="0.737202" transform="rotate(90 1117.85 445.917)" fill="white"/>
<ellipse cx="1117.85" cy="556.497" rx="0.737223" ry="0.737202" transform="rotate(90 1117.85 556.497)" fill="white"/>
<circle cx="1117.85" cy="667.077" r="0.737202" transform="rotate(90 1117.85 667.077)" fill="white"/>
<ellipse cx="1117.85" cy="777.657" rx="0.737223" ry="0.737202" transform="rotate(90 1117.85 777.657)" fill="white"/>
<ellipse cx="1117.85" cy="888.237" rx="0.737182" ry="0.737202" transform="rotate(90 1117.85 888.237)" fill="white"/>
<ellipse cx="1117.85" cy="998.817" rx="0.737223" ry="0.737202" transform="rotate(90 1117.85 998.817)" fill="white"/>
<ellipse cx="1117.85" cy="1109.4" rx="0.737223" ry="0.737202" transform="rotate(90 1117.85 1109.4)" fill="white"/>
<circle cx="1044.13" cy="158.409" r="0.737202" transform="rotate(90 1044.13 158.409)" fill="white"/>
<circle cx="1044.13" cy="268.989" r="0.737202" transform="rotate(90 1044.13 268.989)" fill="white"/>
<ellipse cx="1044.13" cy="379.569" rx="0.737192" ry="0.737202" transform="rotate(90 1044.13 379.569)" fill="white"/>
<ellipse cx="1044.13" cy="490.149" rx="0.737223" ry="0.737202" transform="rotate(90 1044.13 490.149)" fill="white"/>
<circle cx="1044.13" cy="600.729" r="0.737202" transform="rotate(90 1044.13 600.729)" fill="white"/>
<circle cx="1044.13" cy="711.309" r="0.737202" transform="rotate(90 1044.13 711.309)" fill="white"/>
<ellipse cx="1044.13" cy="821.889" rx="0.737182" ry="0.737202" transform="rotate(90 1044.13 821.889)" fill="white"/>
<ellipse cx="1044.13" cy="932.469" rx="0.737223" ry="0.737202" transform="rotate(90 1044.13 932.469)" fill="white"/>
<ellipse cx="1044.13" cy="1043.05" rx="0.737223" ry="0.737202" transform="rotate(90 1044.13 1043.05)" fill="white"/>
<ellipse cx="970.415" cy="143.665" rx="0.737192" ry="0.737202" transform="rotate(90 970.415 143.665)" fill="white"/>
<ellipse cx="970.415" cy="254.244" rx="0.737212" ry="0.737202" transform="rotate(90 970.415 254.244)" fill="white"/>
<ellipse cx="970.415" cy="364.825" rx="0.737162" ry="0.737202" transform="rotate(90 970.415 364.825)" fill="white"/>
<circle cx="970.415" cy="475.405" r="0.737202" transform="rotate(90 970.415 475.405)" fill="white"/>
<circle cx="970.415" cy="585.985" r="0.737202" transform="rotate(90 970.415 585.985)" fill="white"/>
<circle cx="970.415" cy="696.565" r="0.737202" transform="rotate(90 970.415 696.565)" fill="white"/>
<ellipse cx="970.415" cy="807.145" rx="0.737263" ry="0.737202" transform="rotate(90 970.415 807.145)" fill="white"/>
<ellipse cx="970.415" cy="917.724" rx="0.737182" ry="0.737202" transform="rotate(90 970.415 917.724)" fill="white"/>
<ellipse cx="970.415" cy="1028.3" rx="0.737223" ry="0.737202" transform="rotate(90 970.415 1028.3)" fill="white"/>
<ellipse cx="970.415" cy="1138.88" rx="0.737061" ry="0.737202" transform="rotate(90 970.415 1138.88)" fill="white"/>
<ellipse cx="896.691" cy="187.896" rx="0.737202" ry="0.737182" transform="rotate(90 896.691 187.896)" fill="white"/>
<ellipse cx="896.691" cy="298.477" rx="0.737192" ry="0.737182" transform="rotate(90 896.691 298.477)" fill="white"/>
<ellipse cx="896.691" cy="409.057" rx="0.737233" ry="0.737182" transform="rotate(90 896.691 409.057)" fill="white"/>
<ellipse cx="896.691" cy="519.637" rx="0.737202" ry="0.737182" transform="rotate(90 896.691 519.637)" fill="white"/>
<ellipse cx="896.691" cy="630.217" rx="0.737202" ry="0.737182" transform="rotate(90 896.691 630.217)" fill="white"/>
<ellipse cx="896.691" cy="740.797" rx="0.737263" ry="0.737182" transform="rotate(90 896.691 740.797)" fill="white"/>
<circle cx="896.691" cy="851.377" r="0.737182" transform="rotate(90 896.691 851.377)" fill="white"/>
<ellipse cx="896.691" cy="961.957" rx="0.737223" ry="0.737182" transform="rotate(90 896.691 961.957)" fill="white"/>
<circle cx="896.691" cy="1072.54" r="0.737182" transform="rotate(90 896.691 1072.54)" fill="white"/>
<ellipse cx="898.169" cy="1183.12" rx="0.73702" ry="0.737182" transform="rotate(90 898.169 1183.12)" fill="white"/>
<ellipse cx="822.972" cy="128.921" rx="0.737202" ry="0.737223" transform="rotate(90 822.972 128.921)" fill="white"/>
<ellipse cx="822.972" cy="239.501" rx="0.737202" ry="0.737223" transform="rotate(90 822.972 239.501)" fill="white"/>
<ellipse cx="822.972" cy="350.08" rx="0.737172" ry="0.737223" transform="rotate(90 822.972 350.08)" fill="white"/>
<ellipse cx="822.972" cy="460.661" rx="0.737182" ry="0.737223" transform="rotate(90 822.972 460.661)" fill="white"/>
<ellipse cx="822.972" cy="571.241" rx="0.737202" ry="0.737223" transform="rotate(90 822.972 571.241)" fill="white"/>
<ellipse cx="822.972" cy="681.82" rx="0.737202" ry="0.737223" transform="rotate(90 822.972 681.82)" fill="white"/>
<ellipse cx="822.972" cy="792.401" rx="0.737142" ry="0.737223" transform="rotate(90 822.972 792.401)" fill="white"/>
<ellipse cx="822.972" cy="902.981" rx="0.737182" ry="0.737223" transform="rotate(90 822.972 902.981)" fill="white"/>
<circle cx="822.972" cy="1013.56" r="0.737223" transform="rotate(90 822.972 1013.56)" fill="white"/>
<circle cx="822.972" cy="1124.14" r="0.737223" transform="rotate(90 822.972 1124.14)" fill="white"/>
<ellipse cx="749.253" cy="151.036" rx="0.737207" ry="0.737223" transform="rotate(90 749.253 151.036)" fill="white"/>
<ellipse cx="749.253" cy="261.617" rx="0.737202" ry="0.737223" transform="rotate(90 749.253 261.617)" fill="white"/>
<ellipse cx="749.253" cy="372.197" rx="0.737233" ry="0.737223" transform="rotate(90 749.253 372.197)" fill="white"/>
<ellipse cx="749.253" cy="482.776" rx="0.737202" ry="0.737223" transform="rotate(90 749.253 482.776)" fill="white"/>
<ellipse cx="749.253" cy="593.357" rx="0.737182" ry="0.737223" transform="rotate(90 749.253 593.357)" fill="white"/>
<ellipse cx="749.253" cy="703.937" rx="0.737263" ry="0.737223" transform="rotate(90 749.253 703.937)" fill="white"/>
<circle cx="749.253" cy="814.516" r="0.737223" transform="rotate(90 749.253 814.516)" fill="white"/>
<circle cx="749.253" cy="925.096" r="0.737223" transform="rotate(90 749.253 925.096)" fill="white"/>
<ellipse cx="749.253" cy="1035.68" rx="0.737182" ry="0.737223" transform="rotate(90 749.253 1035.68)" fill="white"/>
<ellipse cx="749.253" cy="1146.26" rx="0.737466" ry="0.737223" transform="rotate(90 749.253 1146.26)" fill="white"/>
<ellipse cx="668.159" cy="202.641" rx="0.737202" ry="0.737182" transform="rotate(90 668.159 202.641)" fill="white"/>
<ellipse cx="668.159" cy="313.22" rx="0.737202" ry="0.737182" transform="rotate(90 668.159 313.22)" fill="white"/>
<ellipse cx="668.159" cy="423.801" rx="0.737223" ry="0.737182" transform="rotate(90 668.159 423.801)" fill="white"/>
<ellipse cx="668.159" cy="534.38" rx="0.737202" ry="0.737182" transform="rotate(90 668.159 534.38)" fill="white"/>
<ellipse cx="668.159" cy="644.96" rx="0.737202" ry="0.737182" transform="rotate(90 668.159 644.96)" fill="white"/>
<circle cx="668.159" cy="755.541" r="0.737182" transform="rotate(90 668.159 755.541)" fill="white"/>
<ellipse cx="668.159" cy="866.121" rx="0.737223" ry="0.737182" transform="rotate(90 668.159 866.121)" fill="white"/>
<ellipse cx="668.159" cy="976.701" rx="0.737223" ry="0.737182" transform="rotate(90 668.159 976.701)" fill="white"/>
<circle cx="668.159" cy="1087.28" r="0.737182" transform="rotate(90 668.159 1087.28)" fill="white"/>
<circle cx="669.636" cy="1197.86" r="0.737223" transform="rotate(90 669.636 1197.86)" fill="white"/>
<ellipse cx="587.069" cy="158.409" rx="0.737202" ry="0.737182" transform="rotate(90 587.069 158.409)" fill="white"/>
<ellipse cx="587.069" cy="268.989" rx="0.737202" ry="0.737182" transform="rotate(90 587.069 268.989)" fill="white"/>
<ellipse cx="587.069" cy="379.568" rx="0.737192" ry="0.737182" transform="rotate(90 587.069 379.568)" fill="white"/>
<ellipse cx="587.069" cy="490.149" rx="0.737223" ry="0.737182" transform="rotate(90 587.069 490.149)" fill="white"/>
<ellipse cx="587.069" cy="600.729" rx="0.737202" ry="0.737182" transform="rotate(90 587.069 600.729)" fill="white"/>
<ellipse cx="587.069" cy="711.308" rx="0.737202" ry="0.737182" transform="rotate(90 587.069 711.308)" fill="white"/>
<circle cx="587.069" cy="821.889" r="0.737182" transform="rotate(90 587.069 821.889)" fill="white"/>
<ellipse cx="587.069" cy="932.469" rx="0.737223" ry="0.737182" transform="rotate(90 587.069 932.469)" fill="white"/>
<ellipse cx="587.069" cy="1043.05" rx="0.737223" ry="0.737182" transform="rotate(90 587.069 1043.05)" fill="white"/>
<ellipse cx="587.069" cy="1153.63" rx="0.737223" ry="0.737182" transform="rotate(90 587.069 1153.63)" fill="white"/>
<circle cx="507.452" cy="217.384" r="0.737182" transform="rotate(90 507.452 217.384)" fill="white"/>
<ellipse cx="507.452" cy="327.965" rx="0.737202" ry="0.737182" transform="rotate(90 507.452 327.965)" fill="white"/>
<ellipse cx="507.452" cy="438.545" rx="0.737243" ry="0.737182" transform="rotate(90 507.452 438.545)" fill="white"/>
<ellipse cx="507.452" cy="549.124" rx="0.737202" ry="0.737182" transform="rotate(90 507.452 549.124)" fill="white"/>
<ellipse cx="507.452" cy="659.704" rx="0.737121" ry="0.737182" transform="rotate(90 507.452 659.704)" fill="white"/>
<ellipse cx="507.452" cy="770.284" rx="0.737263" ry="0.737182" transform="rotate(90 507.452 770.284)" fill="white"/>
<ellipse cx="507.452" cy="880.864" rx="0.737223" ry="0.737182" transform="rotate(90 507.452 880.864)" fill="white"/>
<ellipse cx="507.452" cy="991.445" rx="0.737223" ry="0.737182" transform="rotate(90 507.452 991.445)" fill="white"/>
<circle cx="507.452" cy="1102.02" r="0.737182" transform="rotate(90 507.452 1102.02)" fill="white"/>
<ellipse cx="426.362" cy="173.153" rx="0.737202" ry="0.737223" transform="rotate(90 426.362 173.153)" fill="white"/>
<ellipse cx="426.362" cy="283.733" rx="0.737202" ry="0.737223" transform="rotate(90 426.362 283.733)" fill="white"/>
<ellipse cx="426.362" cy="394.313" rx="0.737192" ry="0.737223" transform="rotate(90 426.362 394.313)" fill="white"/>
<ellipse cx="426.362" cy="504.893" rx="0.737202" ry="0.737223" transform="rotate(90 426.362 504.893)" fill="white"/>
<ellipse cx="426.362" cy="615.472" rx="0.737202" ry="0.737223" transform="rotate(90 426.362 615.472)" fill="white"/>
<ellipse cx="426.362" cy="726.053" rx="0.737121" ry="0.737223" transform="rotate(90 426.362 726.053)" fill="white"/>
<ellipse cx="426.362" cy="836.633" rx="0.737182" ry="0.737223" transform="rotate(90 426.362 836.633)" fill="white"/>
<circle cx="426.362" cy="947.212" r="0.737223" transform="rotate(90 426.362 947.212)" fill="white"/>
<circle cx="426.362" cy="1057.79" r="0.737223" transform="rotate(90 426.362 1057.79)" fill="white"/>
<circle cx="426.362" cy="1168.37" r="0.737223" transform="rotate(90 426.362 1168.37)" fill="white"/>
<ellipse cx="345.267" cy="128.921" rx="0.737202" ry="0.737223" transform="rotate(90 345.267 128.921)" fill="white"/>
<ellipse cx="345.267" cy="239.501" rx="0.737202" ry="0.737223" transform="rotate(90 345.267 239.501)" fill="white"/>
<ellipse cx="345.267" cy="350.08" rx="0.737172" ry="0.737223" transform="rotate(90 345.267 350.08)" fill="white"/>
<ellipse cx="345.267" cy="460.661" rx="0.737182" ry="0.737223" transform="rotate(90 345.267 460.661)" fill="white"/>
<ellipse cx="345.267" cy="571.241" rx="0.737202" ry="0.737223" transform="rotate(90 345.267 571.241)" fill="white"/>
<ellipse cx="345.267" cy="681.82" rx="0.737202" ry="0.737223" transform="rotate(90 345.267 681.82)" fill="white"/>
<ellipse cx="345.267" cy="792.401" rx="0.737142" ry="0.737223" transform="rotate(90 345.267 792.401)" fill="white"/>
<ellipse cx="345.269" cy="902.981" rx="0.737182" ry="0.737223" transform="rotate(90 345.269 902.981)" fill="white"/>
<circle cx="345.269" cy="1013.56" r="0.737223" transform="rotate(90 345.269 1013.56)" fill="white"/>
<circle cx="345.269" cy="1124.14" r="0.737223" transform="rotate(90 345.269 1124.14)" fill="white"/>
<ellipse cx="264.177" cy="173.153" rx="0.737202" ry="0.737182" transform="rotate(90 264.177 173.153)" fill="white"/>
<ellipse cx="264.177" cy="283.733" rx="0.737202" ry="0.737182" transform="rotate(90 264.177 283.733)" fill="white"/>
<ellipse cx="264.177" cy="394.313" rx="0.737192" ry="0.737182" transform="rotate(90 264.177 394.313)" fill="white"/>
<ellipse cx="264.177" cy="504.893" rx="0.737202" ry="0.737182" transform="rotate(90 264.177 504.893)" fill="white"/>
<ellipse cx="264.177" cy="615.472" rx="0.737202" ry="0.737182" transform="rotate(90 264.177 615.472)" fill="white"/>
<ellipse cx="264.177" cy="726.053" rx="0.737121" ry="0.737182" transform="rotate(90 264.177 726.053)" fill="white"/>
<circle cx="264.177" cy="836.633" r="0.737182" transform="rotate(90 264.177 836.633)" fill="white"/>
<ellipse cx="264.177" cy="947.212" rx="0.737223" ry="0.737182" transform="rotate(90 264.177 947.212)" fill="white"/>
<ellipse cx="264.177" cy="1057.79" rx="0.737223" ry="0.737182" transform="rotate(90 264.177 1057.79)" fill="white"/>
<ellipse cx="190.454" cy="143.665" rx="0.737192" ry="0.737182" transform="rotate(90 190.454 143.665)" fill="white"/>
<ellipse cx="190.454" cy="254.244" rx="0.737212" ry="0.737182" transform="rotate(90 190.454 254.244)" fill="white"/>
<ellipse cx="190.454" cy="364.825" rx="0.737162" ry="0.737182" transform="rotate(90 190.454 364.825)" fill="white"/>
<ellipse cx="190.454" cy="475.405" rx="0.737202" ry="0.737182" transform="rotate(90 190.454 475.405)" fill="white"/>
<ellipse cx="190.454" cy="585.985" rx="0.737202" ry="0.737182" transform="rotate(90 190.454 585.985)" fill="white"/>
<ellipse cx="190.454" cy="696.565" rx="0.737202" ry="0.737182" transform="rotate(90 190.454 696.565)" fill="white"/>
<ellipse cx="190.454" cy="807.145" rx="0.737263" ry="0.737182" transform="rotate(90 190.454 807.145)" fill="white"/>
<circle cx="190.454" cy="917.724" r="0.737182" transform="rotate(90 190.454 917.724)" fill="white"/>
<ellipse cx="190.454" cy="1028.3" rx="0.737223" ry="0.737182" transform="rotate(90 190.454 1028.3)" fill="white"/>
<ellipse cx="190.454" cy="1028.3" rx="0.737223" ry="0.737182" transform="rotate(90 190.454 1028.3)" fill="white"/>
<ellipse cx="116.735" cy="202.641" rx="0.737202" ry="0.737263" transform="rotate(90 116.735 202.641)" fill="white"/>
<ellipse cx="116.735" cy="313.22" rx="0.737202" ry="0.737263" transform="rotate(90 116.735 313.22)" fill="white"/>
<ellipse cx="116.735" cy="423.801" rx="0.737223" ry="0.737263" transform="rotate(90 116.735 423.801)" fill="white"/>
<ellipse cx="116.735" cy="534.381" rx="0.737202" ry="0.737263" transform="rotate(90 116.735 534.381)" fill="white"/>
<ellipse cx="116.735" cy="644.96" rx="0.737202" ry="0.737263" transform="rotate(90 116.735 644.96)" fill="white"/>
<ellipse cx="116.735" cy="755.541" rx="0.737182" ry="0.737263" transform="rotate(90 116.735 755.541)" fill="white"/>
<ellipse cx="116.735" cy="866.121" rx="0.737223" ry="0.737263" transform="rotate(90 116.735 866.121)" fill="white"/>
<ellipse cx="116.735" cy="976.701" rx="0.737223" ry="0.737263" transform="rotate(90 116.735 976.701)" fill="white"/>
<ellipse cx="116.735" cy="1087.28" rx="0.737182" ry="0.737263" transform="rotate(90 116.735 1087.28)" fill="white"/>
<ellipse cx="264.177" cy="1168.37" rx="0.737223" ry="0.737182" transform="rotate(90 264.177 1168.37)" fill="white"/>
<circle cx="1433.19" cy="18.8747" r="1.30172" transform="rotate(90 1433.19 18.8747)" fill="white"/>
<ellipse cx="1426.68" cy="214.132" rx="1.30173" ry="1.30172" transform="rotate(90 1426.68 214.132)" fill="white"/>
<ellipse cx="1433.19" cy="409.39" rx="1.30172" ry="1.30172" transform="rotate(90 1433.19 409.39)" fill="white"/>
<ellipse cx="1439.7" cy="604.647" rx="1.3017" ry="1.30172" transform="rotate(90 1439.7 604.647)" fill="white"/>
<ellipse cx="1433.19" cy="799.904" rx="1.30172" ry="1.30172" transform="rotate(90 1433.19 799.904)" fill="white"/>
<ellipse cx="1426.68" cy="995.162" rx="1.30172" ry="1.30172" transform="rotate(90 1426.68 995.162)" fill="white"/>
<ellipse cx="1303.02" cy="44.9089" rx="1.30172" ry="1.30171" transform="rotate(90 1303.02 44.9089)" fill="white"/>
<ellipse cx="1296.51" cy="240.166" rx="1.3017" ry="1.30171" transform="rotate(90 1296.51 240.166)" fill="white"/>
<ellipse cx="1303.02" cy="435.424" rx="1.3017" ry="1.30171" transform="rotate(90 1303.02 435.424)" fill="white"/>
<ellipse cx="1309.53" cy="630.681" rx="1.3017" ry="1.30172" transform="rotate(90 1309.53 630.681)" fill="white"/>
<ellipse cx="1303.02" cy="825.938" rx="1.30172" ry="1.30171" transform="rotate(90 1303.02 825.938)" fill="white"/>
<ellipse cx="1296.51" cy="1021.2" rx="1.30176" ry="1.30171" transform="rotate(90 1296.51 1021.2)" fill="white"/>
<ellipse cx="1172.84" cy="5.85713" rx="1.30172" ry="1.30172" transform="rotate(90 1172.84 5.85713)" fill="white"/>
<ellipse cx="1166.34" cy="201.115" rx="1.30172" ry="1.30174" transform="rotate(90 1166.34 201.115)" fill="white"/>
<circle cx="1172.84" cy="396.372" r="1.30172" transform="rotate(90 1172.84 396.372)" fill="white"/>
<ellipse cx="1179.35" cy="591.629" rx="1.30177" ry="1.30172" transform="rotate(90 1179.35 591.629)" fill="white"/>
<ellipse cx="1172.84" cy="786.887" rx="1.30176" ry="1.30172" transform="rotate(90 1172.84 786.887)" fill="white"/>
<ellipse cx="1166.34" cy="982.144" rx="1.30168" ry="1.30174" transform="rotate(90 1166.34 982.144)" fill="white"/>
<ellipse cx="1041.37" cy="83.9604" rx="1.30172" ry="1.30172" transform="rotate(90 1041.37 83.9604)" fill="white"/>
<ellipse cx="1034.87" cy="279.218" rx="1.30171" ry="1.3017" transform="rotate(90 1034.87 279.218)" fill="white"/>
<circle cx="1041.37" cy="474.475" r="1.30172" transform="rotate(90 1041.37 474.475)" fill="white"/>
<ellipse cx="1047.88" cy="669.733" rx="1.30174" ry="1.30172" transform="rotate(90 1047.88 669.733)" fill="white"/>
<ellipse cx="1041.37" cy="864.99" rx="1.30168" ry="1.30172" transform="rotate(90 1041.37 864.99)" fill="white"/>
<circle cx="1036.17" cy="1060.25" r="1.30172" transform="rotate(90 1036.17 1060.25)" fill="white"/>
<ellipse cx="911.204" cy="51.4177" rx="1.30172" ry="1.30168" transform="rotate(90 911.204 51.4177)" fill="white"/>
<ellipse cx="904.69" cy="246.675" rx="1.30171" ry="1.30172" transform="rotate(90 904.69 246.675)" fill="white"/>
<ellipse cx="911.204" cy="441.933" rx="1.3017" ry="1.30168" transform="rotate(90 911.204 441.933)" fill="white"/>
<ellipse cx="917.71" cy="637.19" rx="1.30177" ry="1.30172" transform="rotate(90 917.71 637.19)" fill="white"/>
<ellipse cx="911.204" cy="832.447" rx="1.30172" ry="1.30168" transform="rotate(90 911.204 832.447)" fill="white"/>
<circle cx="904.692" cy="1027.7" r="1.30172" transform="rotate(90 904.692 1027.7)" fill="white"/>
<ellipse cx="782.333" cy="18.8747" rx="1.30172" ry="1.30172" transform="rotate(90 782.333 18.8747)" fill="white"/>
<ellipse cx="774.521" cy="214.132" rx="1.30173" ry="1.30172" transform="rotate(90 774.521 214.132)" fill="white"/>
<circle cx="781.03" cy="409.39" r="1.30172" transform="rotate(90 781.03 409.39)" fill="white"/>
<ellipse cx="787.536" cy="604.647" rx="1.3017" ry="1.30172" transform="rotate(90 787.536 604.647)" fill="white"/>
<circle cx="781.03" cy="799.904" r="1.30172" transform="rotate(90 781.03 799.904)" fill="white"/>
<circle cx="774.523" cy="995.162" r="1.30172" transform="rotate(90 774.523 995.162)" fill="white"/>
<ellipse cx="650.862" cy="123.012" rx="1.30172" ry="1.30168" transform="rotate(90 650.862 123.012)" fill="white"/>
<circle cx="644.347" cy="318.27" r="1.30172" transform="rotate(90 644.347 318.27)" fill="white"/>
<ellipse cx="650.862" cy="513.527" rx="1.30172" ry="1.30168" transform="rotate(90 650.862 513.527)" fill="white"/>
<ellipse cx="657.366" cy="708.784" rx="1.30179" ry="1.30172" transform="rotate(90 657.366 708.784)" fill="white"/>
<ellipse cx="650.862" cy="904.042" rx="1.30176" ry="1.30168" transform="rotate(90 650.862 904.042)" fill="white"/>
<circle cx="645.655" cy="1099.3" r="1.30172" transform="rotate(90 645.655 1099.3)" fill="white"/>
<ellipse cx="521.989" cy="1.30172" rx="1.30172" ry="1.30172" transform="rotate(90 521.989 1.30172)" fill="white"/>
<ellipse cx="515.478" cy="196.559" rx="1.30172" ry="1.30172" transform="rotate(90 515.478 196.559)" fill="white"/>
<ellipse cx="521.989" cy="391.816" rx="1.30174" ry="1.30172" transform="rotate(90 521.989 391.816)" fill="white"/>
<ellipse cx="528.497" cy="587.073" rx="1.30177" ry="1.30172" transform="rotate(90 528.497 587.073)" fill="white"/>
<circle cx="521.989" cy="782.331" r="1.30172" transform="rotate(90 521.989 782.331)" fill="white"/>
<circle cx="515.478" cy="977.589" r="1.30172" transform="rotate(90 515.478 977.589)" fill="white"/>
<ellipse cx="408.739" cy="16.2717" rx="1.30172" ry="1.30168" transform="rotate(90 408.739 16.2717)" fill="white"/>
<ellipse cx="402.231" cy="211.528" rx="1.3017" ry="1.30172" transform="rotate(90 402.231 211.528)" fill="white"/>
<ellipse cx="408.739" cy="406.786" rx="1.3017" ry="1.30168" transform="rotate(90 408.739 406.786)" fill="white"/>
<ellipse cx="415.249" cy="602.043" rx="1.30177" ry="1.30176" transform="rotate(90 415.249 602.043)" fill="white"/>
<ellipse cx="408.739" cy="797.301" rx="1.30172" ry="1.30168" transform="rotate(90 408.739 797.301)" fill="white"/>
<circle cx="402.231" cy="992.558" r="1.30172" transform="rotate(90 402.231 992.558)" fill="white"/>
<ellipse cx="269.452" cy="63.7844" rx="1.30171" ry="1.30168" transform="rotate(90 269.452 63.7844)" fill="white"/>
<ellipse cx="262.946" cy="259.041" rx="1.30171" ry="1.30168" transform="rotate(90 262.946 259.041)" fill="white"/>
<ellipse cx="269.452" cy="454.298" rx="1.30172" ry="1.30168" transform="rotate(90 269.452 454.298)" fill="white"/>
<ellipse cx="275.966" cy="649.556" rx="1.30167" ry="1.30168" transform="rotate(90 275.966 649.556)" fill="white"/>
<ellipse cx="269.452" cy="844.813" rx="1.30172" ry="1.30168" transform="rotate(90 269.452 844.813)" fill="white"/>
<ellipse cx="147.614" cy="1008.83" rx="1.30172" ry="1.30168" transform="rotate(90 147.614 1008.83)" fill="white"/>
<ellipse cx="140.978" cy="100.883" rx="0.650858" ry="0.650842" transform="rotate(90 140.978 100.883)" fill="white"/>
<circle cx="140.978" cy="198.511" r="0.650842" transform="rotate(90 140.978 198.511)" fill="white"/>
<ellipse cx="140.978" cy="296.141" rx="0.65086" ry="0.650842" transform="rotate(90 140.978 296.141)" fill="white"/>
<ellipse cx="140.978" cy="393.769" rx="0.650895" ry="0.650842" transform="rotate(90 140.978 393.769)" fill="white"/>
<ellipse cx="140.978" cy="491.397" rx="0.65086" ry="0.650842" transform="rotate(90 140.978 491.397)" fill="white"/>
<ellipse cx="140.978" cy="589.027" rx="0.650788" ry="0.650842" transform="rotate(90 140.978 589.027)" fill="white"/>
<ellipse cx="140.978" cy="686.655" rx="0.650913" ry="0.650842" transform="rotate(90 140.978 686.655)" fill="white"/>
<ellipse cx="140.978" cy="784.283" rx="0.650878" ry="0.650842" transform="rotate(90 140.978 784.283)" fill="white"/>
<ellipse cx="140.978" cy="881.913" rx="0.650878" ry="0.650842" transform="rotate(90 140.978 881.913)" fill="white"/>
<ellipse cx="140.978" cy="881.913" rx="0.650878" ry="0.650842" transform="rotate(90 140.978 881.913)" fill="white"/>
<ellipse cx="134.468" cy="133.426" rx="0.650851" ry="0.650842" transform="rotate(90 134.468 133.426)" fill="white"/>
<ellipse cx="134.468" cy="231.055" rx="0.650869" ry="0.650842" transform="rotate(90 134.468 231.055)" fill="white"/>
<ellipse cx="134.468" cy="328.683" rx="0.650824" ry="0.650842" transform="rotate(90 134.468 328.683)" fill="white"/>
<ellipse cx="134.468" cy="426.311" rx="0.65086" ry="0.650842" transform="rotate(90 134.468 426.311)" fill="white"/>
<ellipse cx="134.468" cy="523.941" rx="0.65086" ry="0.650842" transform="rotate(90 134.468 523.941)" fill="white"/>
<ellipse cx="134.468" cy="621.569" rx="0.65086" ry="0.650842" transform="rotate(90 134.468 621.569)" fill="white"/>
<ellipse cx="134.468" cy="719.198" rx="0.650913" ry="0.650842" transform="rotate(90 134.468 719.198)" fill="white"/>
<circle cx="134.468" cy="816.827" r="0.650842" transform="rotate(90 134.468 816.827)" fill="white"/>
<ellipse cx="134.468" cy="914.455" rx="0.650878" ry="0.650842" transform="rotate(90 134.468 914.455)" fill="white"/>
<ellipse cx="134.468" cy="914.455" rx="0.650878" ry="0.650842" transform="rotate(90 134.468 914.455)" fill="white"/>
<ellipse cx="173.521" cy="90.4687" rx="0.650858" ry="0.65077" transform="rotate(90 173.521 90.4687)" fill="white"/>
<ellipse cx="173.521" cy="188.098" rx="0.650842" ry="0.65077" transform="rotate(90 173.521 188.098)" fill="white"/>
<ellipse cx="173.521" cy="285.726" rx="0.65086" ry="0.65077" transform="rotate(90 173.521 285.726)" fill="white"/>
<ellipse cx="173.521" cy="383.354" rx="0.650895" ry="0.65077" transform="rotate(90 173.521 383.354)" fill="white"/>
<ellipse cx="173.521" cy="480.984" rx="0.65086" ry="0.65077" transform="rotate(90 173.521 480.984)" fill="white"/>
<ellipse cx="173.521" cy="578.612" rx="0.65086" ry="0.65077" transform="rotate(90 173.521 578.612)" fill="white"/>
<ellipse cx="173.521" cy="676.24" rx="0.650878" ry="0.65077" transform="rotate(90 173.521 676.24)" fill="white"/>
<ellipse cx="173.521" cy="773.87" rx="0.650842" ry="0.65077" transform="rotate(90 173.521 773.87)" fill="white"/>
<ellipse cx="173.521" cy="871.498" rx="0.650842" ry="0.65077" transform="rotate(90 173.521 871.498)" fill="white"/>
<ellipse cx="108.429" cy="162.063" rx="0.65086" ry="0.650842" transform="rotate(90 108.429 162.063)" fill="white"/>
<ellipse cx="108.429" cy="259.693" rx="0.65086" ry="0.650842" transform="rotate(90 108.429 259.693)" fill="white"/>
<ellipse cx="108.429" cy="357.32" rx="0.650833" ry="0.650842" transform="rotate(90 108.429 357.32)" fill="white"/>
<ellipse cx="108.429" cy="454.949" rx="0.65086" ry="0.650842" transform="rotate(90 108.429 454.949)" fill="white"/>
<ellipse cx="108.429" cy="552.577" rx="0.650913" ry="0.650842" transform="rotate(90 108.429 552.577)" fill="white"/>
<ellipse cx="108.429" cy="650.207" rx="0.65086" ry="0.650842" transform="rotate(90 108.429 650.207)" fill="white"/>
<circle cx="108.429" cy="747.835" r="0.650842" transform="rotate(90 108.429 747.835)" fill="white"/>
<circle cx="108.429" cy="845.464" r="0.650842" transform="rotate(90 108.429 845.464)" fill="white"/>
<circle cx="108.429" cy="845.464" r="0.650842" transform="rotate(90 108.429 845.464)" fill="white"/>
<ellipse cx="173.521" cy="969.127" rx="0.650878" ry="0.65077" transform="rotate(90 173.521 969.127)" fill="white"/>
<ellipse cx="148.136" cy="235.61" rx="1.30171" ry="1.30168" transform="rotate(90 148.136 235.61)" fill="white"/>
<ellipse cx="154.642" cy="430.868" rx="1.30172" ry="1.30168" transform="rotate(90 154.642 430.868)" fill="white"/>
<ellipse cx="161.153" cy="626.125" rx="1.30167" ry="1.30168" transform="rotate(90 161.153 626.125)" fill="white"/>
<ellipse cx="154.642" cy="821.383" rx="1.30172" ry="1.30168" transform="rotate(90 154.642 821.383)" fill="white"/>
<ellipse cx="262.946" cy="1040.07" rx="1.30161" ry="1.30168" transform="rotate(90 262.946 1040.07)" fill="white"/>
<ellipse cx="130.171" cy="20.1762" rx="1.30172" ry="1.30176" transform="rotate(90 130.171 20.1762)" fill="white"/>
<ellipse cx="123.665" cy="215.434" rx="1.30171" ry="1.30161" transform="rotate(90 123.665 215.434)" fill="white"/>
<ellipse cx="130.171" cy="410.691" rx="1.30168" ry="1.30176" transform="rotate(90 130.171 410.691)" fill="white"/>
<ellipse cx="136.681" cy="605.948" rx="1.30179" ry="1.30176" transform="rotate(90 136.681 605.948)" fill="white"/>
<ellipse cx="130.171" cy="801.206" rx="1.30168" ry="1.30176" transform="rotate(90 130.171 801.206)" fill="white"/>
<ellipse cx="123.667" cy="996.463" rx="1.30172" ry="1.30161" transform="rotate(90 123.667 996.463)" fill="white"/>
<ellipse rx="0.650855" ry="0.650842" transform="matrix(4.37114e-08 -1 -1 -4.37114e-08 82.9195 933.982)" fill="white"/>
<ellipse rx="0.65086" ry="0.650842" transform="matrix(4.37114e-08 -1 -1 -4.37114e-08 82.9195 836.353)" fill="white"/>
<ellipse rx="0.650851" ry="0.650842" transform="matrix(4.37114e-08 -1 -1 -4.37114e-08 82.9195 738.725)" fill="white"/>
<ellipse rx="0.65086" ry="0.650842" transform="matrix(4.37114e-08 -1 -1 -4.37114e-08 82.9195 641.096)" fill="white"/>
<ellipse rx="0.650913" ry="0.650842" transform="matrix(4.37114e-08 -1 -1 -4.37114e-08 82.9195 543.467)" fill="white"/>
<ellipse rx="0.650788" ry="0.650842" transform="matrix(4.37114e-08 -1 -1 -4.37114e-08 82.9195 445.838)" fill="white"/>
<ellipse rx="0.650878" ry="0.650842" transform="matrix(4.37114e-08 -1 -1 -4.37114e-08 82.9195 348.209)" fill="white"/>
<circle r="0.650842" transform="matrix(4.37114e-08 -1 -1 -4.37114e-08 82.9195 250.582)" fill="white"/>
<circle r="0.650842" transform="matrix(4.37114e-08 -1 -1 -4.37114e-08 82.9195 152.952)" fill="white"/>
<ellipse rx="0.65086" ry="0.650913" transform="matrix(4.37114e-08 -1 -1 -4.37114e-08 76.4096 901.439)" fill="white"/>
<ellipse rx="0.65086" ry="0.650913" transform="matrix(4.37114e-08 -1 -1 -4.37114e-08 76.4096 803.809)" fill="white"/>
<ellipse rx="0.650878" ry="0.650913" transform="matrix(4.37114e-08 -1 -1 -4.37114e-08 76.4096 706.181)" fill="white"/>
<ellipse rx="0.65086" ry="0.650913" transform="matrix(4.37114e-08 -1 -1 -4.37114e-08 76.4096 608.553)" fill="white"/>
<ellipse rx="0.65086" ry="0.650913" transform="matrix(4.37114e-08 -1 -1 -4.37114e-08 76.4096 510.923)" fill="white"/>
<ellipse rx="0.650842" ry="0.650913" transform="matrix(4.37114e-08 -1 -1 -4.37114e-08 76.4096 413.294)" fill="white"/>
<ellipse rx="0.650878" ry="0.650913" transform="matrix(4.37114e-08 -1 -1 -4.37114e-08 76.4096 315.667)" fill="white"/>
<ellipse rx="0.650878" ry="0.650913" transform="matrix(4.37114e-08 -1 -1 -4.37114e-08 76.4096 218.037)" fill="white"/>
<ellipse rx="0.650842" ry="0.650913" transform="matrix(4.37114e-08 -1 -1 -4.37114e-08 76.4096 120.408)" fill="white"/>
<ellipse rx="0.650858" ry="0.650913" transform="matrix(4.37114e-08 -1 -1 -4.37114e-08 50.3803 970.429)" fill="white"/>
<ellipse rx="0.650842" ry="0.650913" transform="matrix(4.37114e-08 -1 -1 -4.37114e-08 50.3803 872.8)" fill="white"/>
<ellipse rx="0.650869" ry="0.650913" transform="matrix(4.37114e-08 -1 -1 -4.37114e-08 50.3803 775.172)" fill="white"/>
<ellipse rx="0.65086" ry="0.650913" transform="matrix(4.37114e-08 -1 -1 -4.37114e-08 50.3803 677.543)" fill="white"/>
<ellipse rx="0.650842" ry="0.650913" transform="matrix(4.37114e-08 -1 -1 -4.37114e-08 50.3803 579.914)" fill="white"/>
<ellipse rx="0.65086" ry="0.650913" transform="matrix(4.37114e-08 -1 -1 -4.37114e-08 50.3803 482.285)" fill="white"/>
<circle r="0.650913" transform="matrix(4.37114e-08 -1 -1 -4.37114e-08 50.3803 384.657)" fill="white"/>
<ellipse rx="0.650878" ry="0.650913" transform="matrix(4.37114e-08 -1 -1 -4.37114e-08 50.3803 287.028)" fill="white"/>
<ellipse rx="0.650842" ry="0.650913" transform="matrix(4.37114e-08 -1 -1 -4.37114e-08 50.3803 189.398)" fill="white"/>
<ellipse rx="1.30172" ry="1.30176" transform="matrix(4.37114e-08 -1 -1 -4.37114e-08 93.9834 999.067)" fill="white"/>
<ellipse rx="1.30171" ry="1.30168" transform="matrix(4.37114e-08 -1 -1 -4.37114e-08 87.4737 803.81)" fill="white"/>
<ellipse rx="1.30172" ry="1.30176" transform="matrix(4.37114e-08 -1 -1 -4.37114e-08 93.9834 608.553)" fill="white"/>
<ellipse rx="1.30172" ry="1.30168" transform="matrix(4.37114e-08 -1 -1 -4.37114e-08 100.493 413.295)" fill="white"/>
<ellipse rx="1.30172" ry="1.30176" transform="matrix(4.37114e-08 -1 -1 -4.37114e-08 93.9834 218.038)" fill="white"/>
<ellipse rx="1.30172" ry="1.30168" transform="matrix(4.37114e-08 -1 -1 -4.37114e-08 39.8331 101.534)" fill="white"/>
<ellipse rx="0.650858" ry="0.650842" transform="matrix(4.37114e-08 -1 -1 -4.37114e-08 33.1968 1009.48)" fill="white"/>
<circle r="0.650842" transform="matrix(4.37114e-08 -1 -1 -4.37114e-08 33.1968 911.852)" fill="white"/>
<ellipse rx="0.65086" ry="0.650842" transform="matrix(4.37114e-08 -1 -1 -4.37114e-08 33.1968 814.223)" fill="white"/>
<ellipse rx="0.650895" ry="0.650842" transform="matrix(4.37114e-08 -1 -1 -4.37114e-08 33.1968 716.594)" fill="white"/>
<ellipse rx="0.65086" ry="0.650842" transform="matrix(4.37114e-08 -1 -1 -4.37114e-08 33.1968 618.966)" fill="white"/>
<ellipse rx="0.650788" ry="0.650842" transform="matrix(4.37114e-08 -1 -1 -4.37114e-08 33.1968 521.337)" fill="white"/>
<ellipse rx="0.650913" ry="0.650842" transform="matrix(4.37114e-08 -1 -1 -4.37114e-08 33.1968 423.707)" fill="white"/>
<ellipse rx="0.650878" ry="0.650842" transform="matrix(4.37114e-08 -1 -1 -4.37114e-08 33.1968 326.08)" fill="white"/>
<ellipse rx="0.650878" ry="0.650842" transform="matrix(4.37114e-08 -1 -1 -4.37114e-08 33.1968 228.451)" fill="white"/>
<ellipse rx="0.650878" ry="0.650842" transform="matrix(4.37114e-08 -1 -1 -4.37114e-08 33.1968 228.451)" fill="white"/>
<ellipse rx="0.650851" ry="0.650842" transform="matrix(4.37114e-08 -1 -1 -4.37114e-08 26.6851 976.937)" fill="white"/>
<ellipse rx="0.650869" ry="0.650842" transform="matrix(4.37114e-08 -1 -1 -4.37114e-08 26.6851 879.309)" fill="white"/>
<ellipse rx="0.650824" ry="0.650842" transform="matrix(4.37114e-08 -1 -1 -4.37114e-08 26.6851 781.68)" fill="white"/>
<ellipse rx="0.65086" ry="0.650842" transform="matrix(4.37114e-08 -1 -1 -4.37114e-08 26.6851 684.052)" fill="white"/>
<ellipse rx="0.65086" ry="0.650842" transform="matrix(4.37114e-08 -1 -1 -4.37114e-08 26.6851 586.422)" fill="white"/>
<ellipse rx="0.65086" ry="0.650842" transform="matrix(4.37114e-08 -1 -1 -4.37114e-08 26.6851 488.794)" fill="white"/>
<ellipse rx="0.650913" ry="0.650842" transform="matrix(4.37114e-08 -1 -1 -4.37114e-08 26.6851 391.165)" fill="white"/>
<circle r="0.650842" transform="matrix(4.37114e-08 -1 -1 -4.37114e-08 26.6851 293.538)" fill="white"/>
<ellipse rx="0.650878" ry="0.650842" transform="matrix(4.37114e-08 -1 -1 -4.37114e-08 26.6851 195.908)" fill="white"/>
<ellipse rx="0.650878" ry="0.650842" transform="matrix(4.37114e-08 -1 -1 -4.37114e-08 26.6851 195.908)" fill="white"/>
<ellipse rx="0.650842" ry="0.65077" transform="matrix(4.37114e-08 -1 -1 -4.37114e-08 65.7379 922.266)" fill="white"/>
<ellipse rx="0.65086" ry="0.65077" transform="matrix(4.37114e-08 -1 -1 -4.37114e-08 65.7379 824.637)" fill="white"/>
<ellipse rx="0.650895" ry="0.65077" transform="matrix(4.37114e-08 -1 -1 -4.37114e-08 65.7379 727.009)" fill="white"/>
<ellipse rx="0.65086" ry="0.65077" transform="matrix(4.37114e-08 -1 -1 -4.37114e-08 65.7379 629.38)" fill="white"/>
<ellipse rx="0.65086" ry="0.65077" transform="matrix(4.37114e-08 -1 -1 -4.37114e-08 65.7379 531.751)" fill="white"/>
<ellipse rx="0.650878" ry="0.65077" transform="matrix(4.37114e-08 -1 -1 -4.37114e-08 65.7379 434.123)" fill="white"/>
<ellipse rx="0.650842" ry="0.65077" transform="matrix(4.37114e-08 -1 -1 -4.37114e-08 65.7379 336.494)" fill="white"/>
<ellipse rx="0.650842" ry="0.65077" transform="matrix(4.37114e-08 -1 -1 -4.37114e-08 65.7379 238.864)" fill="white"/>
<ellipse rx="0.65086" ry="0.650842" transform="matrix(4.37114e-08 -1 -1 -4.37114e-08 0.649939 948.3)" fill="white"/>
<ellipse rx="0.65086" ry="0.650842" transform="matrix(4.37114e-08 -1 -1 -4.37114e-08 0.649939 850.671)" fill="white"/>
<ellipse rx="0.650833" ry="0.650842" transform="matrix(4.37114e-08 -1 -1 -4.37114e-08 0.649939 753.043)" fill="white"/>
<ellipse rx="0.65086" ry="0.650842" transform="matrix(4.37114e-08 -1 -1 -4.37114e-08 0.649939 655.414)" fill="white"/>
<ellipse rx="0.650913" ry="0.650842" transform="matrix(4.37114e-08 -1 -1 -4.37114e-08 0.649939 557.786)" fill="white"/>
<ellipse rx="0.65086" ry="0.650842" transform="matrix(4.37114e-08 -1 -1 -4.37114e-08 0.649939 460.158)" fill="white"/>
<circle r="0.650842" transform="matrix(4.37114e-08 -1 -1 -4.37114e-08 0.649939 362.528)" fill="white"/>
<circle r="0.650842" transform="matrix(4.37114e-08 -1 -1 -4.37114e-08 0.649939 264.899)" fill="white"/>
<circle r="0.650842" transform="matrix(4.37114e-08 -1 -1 -4.37114e-08 0.649939 264.899)" fill="white"/>
<ellipse rx="0.650878" ry="0.65077" transform="matrix(4.37114e-08 -1 -1 -4.37114e-08 65.7379 141.237)" fill="white"/>
<ellipse rx="1.30171" ry="1.30168" transform="matrix(4.37114e-08 -1 -1 -4.37114e-08 40.3546 874.753)" fill="white"/>
<ellipse rx="1.30172" ry="1.30168" transform="matrix(4.37114e-08 -1 -1 -4.37114e-08 46.8604 679.495)" fill="white"/>
<ellipse rx="1.30167" ry="1.30168" transform="matrix(4.37114e-08 -1 -1 -4.37114e-08 53.3721 484.239)" fill="white"/>
<ellipse rx="1.30172" ry="1.30168" transform="matrix(4.37114e-08 -1 -1 -4.37114e-08 46.8604 288.981)" fill="white"/>
<ellipse rx="1.30171" ry="1.30161" transform="matrix(4.37114e-08 -1 -1 -4.37114e-08 15.882 894.93)" fill="white"/>
<ellipse rx="1.30168" ry="1.30176" transform="matrix(4.37114e-08 -1 -1 -4.37114e-08 22.3936 699.672)" fill="white"/>
<ellipse rx="1.30179" ry="1.30176" transform="matrix(4.37114e-08 -1 -1 -4.37114e-08 28.8936 504.415)" fill="white"/>
<ellipse rx="1.30168" ry="1.30176" transform="matrix(4.37114e-08 -1 -1 -4.37114e-08 22.3936 309.158)" fill="white"/>
<ellipse rx="1.30172" ry="1.30161" transform="matrix(4.37114e-08 -1 -1 -4.37114e-08 15.882 113.899)" fill="white"/>
</svg>
